
@startuml

skinparam backgroundColor #FEFEFE
skinparam wrapWidth 600
package "DMA_Analyzer_API" #DDDDDD
{

class "CAnalyzerComponent"
{
}

abstract class "IDLTMessageAnalyzerController"
{
    + {abstract} virtual int getMaximumNumberOfThreads() const = 0
    + signal void progressNotification( const tProgressNotificationData& progressNotificationData )
    + {abstract} virtual tRequestId requestAnalyze( const std::weak_ptr<IDLTMessageAnalyzerControllerConsumer>& pClient, const tRequestParameters& requestParameters ) = 0
    + {abstract} virtual void cancelRequest( const std::weak_ptr<IDLTMessageAnalyzerControllerConsumer>& pClient, const tRequestId& requestId ) = 0
}

abstract class "IDLTMessageAnalyzerControllerConsumer"
{
    + {abstract} virtual slot void progressNotification( const tProgressNotificationData& progressNotificationData ) = 0
    + tRequestId requestAnalyze( const tRequestParameters& requestParameters )
}

class "std::enable_shared_from_this<IDLTMessageAnalyzerControllerConsumer>" as std::enable_shared_from_this_IDLTMessageAnalyzerControllerConsumer_
{
}

}

package "DMA_Framework_Component" #DDDDDD
{

class "DMA::IComponent"
{
}

}

package "DMA_Settings_API" #DDDDDD
{

class "CSettingsManagerClient"
{
}

}

package "Qt" #DDDDDD
{

class "QObject"
{
}

}

'====================Inheritance section====================
CSettingsManagerClient <|-- CAnalyzerComponent : extends
DMA::IComponent <|-- CAnalyzerComponent : implements
QObject <|-- IDLTMessageAnalyzerController : extends
QObject <|-- IDLTMessageAnalyzerControllerConsumer : extends
std::enable_shared_from_this_IDLTMessageAnalyzerControllerConsumer_ <|-- IDLTMessageAnalyzerControllerConsumer : extends

'====================Dependencies section====================
IDLTMessageAnalyzerControllerConsumer "1" o-- "1" IDLTMessageAnalyzerController : uses

@enduml