
@startuml

skinparam backgroundColor #FEFEFE
skinparam wrapWidth 600
package "DMA_Analyzer" #DDDDDD
{

class "CContinuousAnalyzer"
{
}

class "CDLTRegexAnalyzerWorker"
{
}

class "CMTAnalyzer"
{
}

class "CSubConsumer"
{
}

}

package "DMA_Analyzer_API" #DDDDDD
{

class "CAnalyzerComponent"
{
}

abstract class "IDLTMessageAnalyzerController"
{
    + {abstract} virtual int getMaximumNumberOfThreads() const = 0
    + signal void progressNotification( const tProgressNotificationData& progressNotificationData )
    + {abstract} virtual tRequestId requestAnalyze( const std::weak_ptr<IDLTMessageAnalyzerControllerConsumer>& pClient, const tRequestParameters& requestParameters ) = 0
    + {abstract} virtual void cancelRequest( const std::weak_ptr<IDLTMessageAnalyzerControllerConsumer>& pClient, const tRequestId& requestId ) = 0
}

abstract class "IDLTMessageAnalyzerControllerConsumer"
{
    + {abstract} virtual slot void progressNotification( const tProgressNotificationData& progressNotificationData ) = 0
    + tRequestId requestAnalyze( const tRequestParameters& requestParameters )
}

}

package "DMA_Settings_API" #DDDDDD
{

class "CSettingsManagerClient"
{
}

}

package "Qt" #DDDDDD
{

class "QObject"
{
}

class "QThread"
{
}

}

'====================Inheritance section====================
IDLTMessageAnalyzerController <|-- CContinuousAnalyzer : implements
CSettingsManagerClient <|-- CDLTRegexAnalyzerWorker : extends
QObject <|-- CDLTRegexAnalyzerWorker : extends
CSettingsManagerClient <|-- CMTAnalyzer : extends
IDLTMessageAnalyzerController <|-- CMTAnalyzer : implements
IDLTMessageAnalyzerControllerConsumer <|-- CSubConsumer : implements

'====================Dependencies section====================
CContinuousAnalyzer "1" o-- "1" IDLTMessageAnalyzerController : uses
CContinuousAnalyzer "1" *-- "1" IDLTMessageAnalyzerControllerConsumer : contains
CMTAnalyzer "1" *-- "*" CDLTRegexAnalyzerWorker : contains
CMTAnalyzer "1" *-- "*" QThread : contains
CAnalyzerComponent "1" *-- "1" CContinuousAnalyzer : contains
CAnalyzerComponent "1" --> "1" CMTAnalyzer : creates and feeds into CContinuousAnalyzer

@enduml