
@startuml

skinparam backgroundColor #FEFEFE
skinparam wrapWidth 600
package "DMA_CoverageNote" #DDDDDD
{

class "CCoverageNoteProvider"
{
}

}

package "DMA_CoverageNote_API" #DDDDDD
{

class "tCoverageNote"
{
}

class "tCoverageNoteItem"
{
    + QDateTime dateTime
    + tQStringPtrWrapper comment
    + tQStringPtrWrapper message
    + tQStringPtrWrapper regex
    + tQStringPtrWrapper userName
}

}

package "nlohmann_json" #DDDDDD
{

class "nlohmann::json"
{
}

}

'====================Dependencies section====================
CCoverageNoteProvider "1" --> "1" nlohmann::json : uses
tCoverageNote "1" --> "1" nlohmann::json : uses
tCoverageNoteItem "1" --> "1" nlohmann::json : uses

@enduml