
@startuml

skinparam backgroundColor #FEFEFE
skinparam wrapWidth 600
package "Qt" #DDDDDD
{

class "QObject"
{
}

class "QWidget"
{
}

}

package "qcustomplot" #DDDDDD
{

class "QCPAbstractPlottable"
{
}

class "QCPAxis"
{
}

class "QCPAxisRect"
{
}

class "QCPGraph"
{
}

class "QCPLayerable"
{
}

class "QCPLegend"
{
}

class "QCustomPlot"
{
}

}

'====================Inheritance section====================
QCPLayerable <|-- QCPAbstractPlottable : extends
QCPLayerable <|-- QCPAxis : extends
QObject <|-- QCPAxisRect : extends
QCPAbstractPlottable <|-- QCPGraph : extends
QObject <|-- QCPLayerable : extends
QObject <|-- QCPLegend : extends
QWidget <|-- QCustomPlot : extends

@enduml